<svg width="18" height="18" viewBox="0 0 18 18" fill="none" xmlns="http://www.w3.org/2000/svg">
<path d="M1.99976 3C2.55204 3 2.99976 2.55228 2.99976 2C2.99976 1.44772 2.55204 1 1.99976 1C1.44747 1 0.999756 1.44772 0.999756 2C0.999756 2.55228 1.44747 3 1.99976 3Z" stroke="white" stroke-width="2" stroke-linecap="round" stroke-linejoin="round"/>
<path d="M8.99951 3C9.5518 3 9.99951 2.55228 9.99951 2C9.99951 1.44772 9.5518 1 8.99951 1C8.44723 1 7.99951 1.44772 7.99951 2C7.99951 2.55228 8.44723 3 8.99951 3Z" stroke="white" stroke-width="2" stroke-linecap="round" stroke-linejoin="round"/>
<path d="M16 3C16.5523 3 17 2.55228 17 2C17 1.44772 16.5523 1 16 1C15.4477 1 15 1.44772 15 2C15 2.55228 15.4477 3 16 3Z" stroke="white" stroke-width="2" stroke-linecap="round" stroke-linejoin="round"/>
<path d="M1.99976 10C2.55204 10 2.99976 9.55228 2.99976 9C2.99976 8.44772 2.55204 8 1.99976 8C1.44747 8 0.999756 8.44772 0.999756 9C0.999756 9.55228 1.44747 10 1.99976 10Z" stroke="white" stroke-width="2" stroke-linecap="round" stroke-linejoin="round"/>
<path d="M8.99951 10C9.5518 10 9.99951 9.55228 9.99951 9C9.99951 8.44772 9.5518 8 8.99951 8C8.44723 8 7.99951 8.44772 7.99951 9C7.99951 9.55228 8.44723 10 8.99951 10Z" stroke="white" stroke-width="2" stroke-linecap="round" stroke-linejoin="round"/>
<path d="M16 10C16.5523 10 17 9.55228 17 9C17 8.44772 16.5523 8 16 8C15.4477 8 15 8.44772 15 9C15 9.55228 15.4477 10 16 10Z" stroke="white" stroke-width="2" stroke-linecap="round" stroke-linejoin="round"/>
<path d="M1.99976 17C2.55204 17 2.99976 16.5523 2.99976 16C2.99976 15.4477 2.55204 15 1.99976 15C1.44747 15 0.999756 15.4477 0.999756 16C0.999756 16.5523 1.44747 17 1.99976 17Z" stroke="white" stroke-width="2" stroke-linecap="round" stroke-linejoin="round"/>
<path d="M8.99951 17C9.5518 17 9.99951 16.5523 9.99951 16C9.99951 15.4477 9.5518 15 8.99951 15C8.44723 15 7.99951 15.4477 7.99951 16C7.99951 16.5523 8.44723 17 8.99951 17Z" stroke="white" stroke-width="2" stroke-linecap="round" stroke-linejoin="round"/>
<path d="M16 17C16.5523 17 17 16.5523 17 16C17 15.4477 16.5523 15 16 15C15.4477 15 15 15.4477 15 16C15 16.5523 15.4477 17 16 17Z" stroke="white" stroke-width="2" stroke-linecap="round" stroke-linejoin="round"/>
</svg>
